<?xml version="1.0" encoding="UTF-8" standalone="no"?>
<!DOCTYPE svg PUBLIC "-//W3C//DTD SVG 1.1//EN" "http://www.w3.org/Graphics/SVG/1.1/DTD/svg11.dtd">
<!-- Generated by Microsoft Visio, SVG Export Diagramas.svg Page-4 -->
<svg xmlns="http://www.w3.org/2000/svg" xmlns:xlink="http://www.w3.org/1999/xlink" xmlns:ev="http://www.w3.org/2001/xml-events"
		xmlns:v="http://schemas.microsoft.com/visio/2003/SVGExtensions/" width="11.6929in" height="8.26772in"
		viewBox="0 0 841.89 595.276" xml:space="preserve" color-interpolation-filters="sRGB" class="st12">
	<v:documentProperties v:langID="1033" v:metric="true" v:viewMarkup="false">
		<v:userDefs>
			<v:ud v:nameU="msvSubprocessMaster" v:prompt="" v:val="VT4(Rectangle)"/>
			<v:ud v:nameU="msvNoAutoConnect" v:val="VT0(1):26"/>
		</v:userDefs>
	</v:documentProperties>

	<style type="text/css">
	<![CDATA[
		.st1 {fill:none;stroke:none;stroke-width:0.25}
		.st2 {fill:#5b9bd5;font-family:Calibri;font-size:1.5em}
		.st3 {visibility:visible}
		.st4 {fill:#5b9bd5;fill-opacity:0.22;filter:url(#filter_2);stroke:#5b9bd5;stroke-opacity:0.22}
		.st5 {fill:#5b9bd5;stroke:#c7c8c8;stroke-width:0.25}
		.st6 {fill:#feffff;font-family:Calibri;font-size:0.833336em}
		.st7 {font-size:1em}
		.st8 {fill:#5b9bd5;fill-opacity:0.25;filter:url(#filter_2);stroke:#5b9bd5;stroke-opacity:0.25}
		.st9 {fill:#4f87bb;stroke:#40709c;stroke-width:0.75}
		.st10 {marker-end:url(#mrkr4-60);stroke:#5b9bd5;stroke-dasharray:3,3;stroke-linecap:round;stroke-linejoin:round;stroke-width:1}
		.st11 {fill:#5b9bd5;fill-opacity:1;stroke:#5b9bd5;stroke-opacity:1;stroke-width:0.28409090909091}
		.st12 {fill:none;fill-rule:evenodd;font-size:12px;overflow:visible;stroke-linecap:square;stroke-miterlimit:3}
	]]>
	</style>

	<defs id="Markers">
		<g id="lend4">
			<path d="M 2 1 L 0 0 L 2 -1 L 2 1 " style="stroke:none"/>
		</g>
		<marker id="mrkr4-60" class="st11" v:arrowType="4" v:arrowSize="2" v:setback="7.04" refX="-7.04" orient="auto"
				markerUnits="strokeWidth" overflow="visible">
			<use xlink:href="#lend4" transform="scale(-3.52,-3.52) "/>
		</marker>
	</defs>
	<defs id="Filters">
		<filter id="filter_2">
			<feGaussianBlur stdDeviation="2"/>
		</filter>
	</defs>
	<g v:mID="6" v:index="4" v:groupContext="foregroundPage">
		<v:userDefs>
			<v:ud v:nameU="msvThemeOrder" v:val="VT0(0):26"/>
		</v:userDefs>
		<title>Page-4</title>
		<v:pageProperties v:drawingScale="0.0393701" v:pageScale="0.0393701" v:drawingUnits="24" v:shadowOffsetX="8.50394"
				v:shadowOffsetY="-8.50394"/>
		<v:layer v:name="Connector" v:index="0"/>
		<g id="shape1-1" v:mID="1" v:groupContext="shape" transform="translate(227.307,-514.374)">
			<title>Sheet.1</title>
			<desc>Diagrama geral da Aplicação Web</desc>
			<v:textBlock v:margins="rect(4,4,4,4)" v:tabSpace="42.5197"/>
			<v:textRect cx="183.984" cy="571.067" width="367.97" height="48.4169"/>
			<rect x="0" y="546.859" width="367.969" height="48.4169" class="st1"/>
			<text x="61.22" y="576.47" class="st2" v:langID="1046"><v:paragraph v:horizAlign="1"/><v:tabList/>Diagrama geral da Aplicação Web</text>		</g>
		<g id="shape3-4" v:mID="3" v:groupContext="shape" transform="translate(368.504,-297.638)">
			<title>Rectangle</title>
			<desc>Aplicação</desc>
			<v:userDefs>
				<v:ud v:nameU="visVersion" v:val="VT0(15):26"/>
			</v:userDefs>
			<v:textBlock v:margins="rect(4,4,4,4)" v:tabSpace="42.5197"/>
			<v:textRect cx="56.6929" cy="552.756" width="113.39" height="85.0394"/>
			<g id="shadow3-5" v:groupContext="shadow" v:shadowOffsetX="0.345598" v:shadowOffsetY="-1.97279" v:shadowType="1"
					transform="matrix(1,0,0,1,0.345598,1.97279)" class="st3">
				<rect x="0" y="510.236" width="113.386" height="85.0394" class="st4"/>
			</g>
			<rect x="0" y="510.236" width="113.386" height="85.0394" class="st5"/>
			<text x="37.22" y="555.76" class="st6" v:langID="1046"><v:paragraph v:horizAlign="1"/><v:tabList/>Aplicação</text>		</g>
		<g id="shape4-10" v:mID="4" v:groupContext="shape" transform="translate(529.134,-297.638)">
			<title>Rectangle.4</title>
			<desc>WebServer</desc>
			<v:userDefs>
				<v:ud v:nameU="visVersion" v:val="VT0(15):26"/>
			</v:userDefs>
			<v:textBlock v:margins="rect(4,4,4,4)" v:tabSpace="42.5197"/>
			<v:textRect cx="56.6929" cy="552.756" width="113.39" height="85.0394"/>
			<g id="shadow4-11" v:groupContext="shadow" v:shadowOffsetX="0.345598" v:shadowOffsetY="-1.97279" v:shadowType="1"
					transform="matrix(1,0,0,1,0.345598,1.97279)" class="st3">
				<rect x="0" y="510.236" width="113.386" height="85.0394" class="st4"/>
			</g>
			<rect x="0" y="510.236" width="113.386" height="85.0394" class="st5"/>
			<text x="34.11" y="555.76" class="st6" v:langID="1046"><v:paragraph v:horizAlign="1"/><v:tabList/>WebServer</text>		</g>
		<g id="shape5-16" v:mID="5" v:groupContext="shape" transform="translate(207.874,-297.638)">
			<title>Rectangle.5</title>
			<desc>Interface</desc>
			<v:userDefs>
				<v:ud v:nameU="visVersion" v:val="VT0(15):26"/>
			</v:userDefs>
			<v:textBlock v:margins="rect(4,4,4,4)" v:tabSpace="42.5197"/>
			<v:textRect cx="56.6929" cy="552.756" width="113.39" height="85.0394"/>
			<g id="shadow5-17" v:groupContext="shadow" v:shadowOffsetX="0.345598" v:shadowOffsetY="-1.97279" v:shadowType="1"
					transform="matrix(1,0,0,1,0.345598,1.97279)" class="st3">
				<rect x="0" y="510.236" width="113.386" height="85.0394" class="st4"/>
			</g>
			<rect x="0" y="510.236" width="113.386" height="85.0394" class="st5"/>
			<text x="38.38" y="555.76" class="st6" v:langID="1046"><v:paragraph v:horizAlign="1"/><v:tabList/>Interface</text>		</g>
		<g id="shape6-22" v:mID="6" v:groupContext="shape" transform="translate(85.0394,-308.362)">
			<title>Ellipse</title>
			<desc>Aviso sobre quedas, bateria fraca, anomalias, emergências</desc>
			<v:userDefs>
				<v:ud v:nameU="visVersion" v:val="VT0(15):26"/>
			</v:userDefs>
			<v:textBlock v:margins="rect(4,4,4,4)" v:tabSpace="42.5197"/>
			<v:textRect cx="47.6929" cy="563.48" width="83.47" height="55.6417"/>
			<g id="shadow6-23" v:groupContext="shadow" v:shadowOffsetX="0.345598" v:shadowOffsetY="-1.97279" v:shadowType="1"
					transform="matrix(1,0,0,1,0.345598,1.97279)" class="st3">
				<path d="M0 563.48 A47.6929 31.7953 0 0 1 95.39 563.48 A47.6929 31.7953 0 0 1 0 563.48 Z" class="st4"/>
			</g>
			<path d="M0 563.48 A47.6929 31.7953 0 0 1 95.39 563.48 A47.6929 31.7953 0 0 1 0 563.48 Z" class="st5"/>
			<text x="24.22" y="548.48" class="st6" v:langID="1046"><v:paragraph v:horizAlign="1"/><v:tabList/>Aviso sobre <tspan
						x="16.13" dy="1.2em" class="st7">quedas</tspan>, bateria <tspan x="13.2" dy="1.2em" class="st7">fraca</tspan>, anomalias, <tspan
						x="21.9" dy="1.2em" class="st7">emergências</tspan></text>		</g>
		<g id="shape9-31" v:mID="9" v:groupContext="shape" transform="translate(85.0394,-421.748)">
			<title>Ellipse.9</title>
			<desc>Consultar situação de um dispostivo</desc>
			<v:userDefs>
				<v:ud v:nameU="visVersion" v:val="VT0(15):26"/>
			</v:userDefs>
			<v:textBlock v:margins="rect(4,4,4,4)" v:tabSpace="42.5197"/>
			<v:textRect cx="47.6929" cy="563.48" width="83.47" height="55.6417"/>
			<g id="shadow9-32" v:groupContext="shadow" v:shadowOffsetX="0.345598" v:shadowOffsetY="-1.97279" v:shadowType="1"
					transform="matrix(1,0,0,1,0.345598,1.97279)" class="st3">
				<path d="M0 563.48 A47.6929 31.7953 0 0 1 95.39 563.48 A47.6929 31.7953 0 0 1 0 563.48 Z" class="st4"/>
			</g>
			<path d="M0 563.48 A47.6929 31.7953 0 0 1 95.39 563.48 A47.6929 31.7953 0 0 1 0 563.48 Z" class="st5"/>
			<text x="10.14" y="560.48" class="st6" v:langID="1046"><v:paragraph v:horizAlign="1"/><v:tabList/>Consultar situação <tspan
						x="13.03" dy="1.2em" class="st7">de um dispostivo</tspan></text>		</g>
		<g id="shape10-38" v:mID="10" v:groupContext="shape" transform="translate(680.315,-308.362)">
			<title>Ellipse.10</title>
			<desc>Comunicação com a Internet</desc>
			<v:userDefs>
				<v:ud v:nameU="visVersion" v:val="VT0(15):26"/>
			</v:userDefs>
			<v:textBlock v:margins="rect(4,4,4,4)" v:tabSpace="42.5197"/>
			<v:textRect cx="47.6929" cy="563.48" width="83.47" height="55.6417"/>
			<g id="shadow10-39" v:groupContext="shadow" v:shadowOffsetX="0.345598" v:shadowOffsetY="-1.97279" v:shadowType="1"
					transform="matrix(1,0,0,1,0.345598,1.97279)" class="st3">
				<path d="M0 563.48 A47.6929 31.7953 0 0 1 95.39 563.48 A47.6929 31.7953 0 0 1 0 563.48 Z" class="st4"/>
			</g>
			<path d="M0 563.48 A47.6929 31.7953 0 0 1 95.39 563.48 A47.6929 31.7953 0 0 1 0 563.48 Z" class="st5"/>
			<text x="10.46" y="560.48" class="st6" v:langID="1046"><v:paragraph v:horizAlign="1"/><v:tabList/>Comunicação com <tspan
						x="27.59" dy="1.2em" class="st7">a Internet</tspan></text>		</g>
		<g id="shape12-45" v:mID="12" v:groupContext="shape" transform="translate(368.504,850.394) rotate(180)">
			<title>Simple Double Arrow</title>
			<v:userDefs>
				<v:ud v:nameU="visVersion" v:val="VT0(15):26"/>
				<v:ud v:nameU="ArrowType" v:prompt="" v:val="VT0(3):26"/>
			</v:userDefs>
			<g id="shadow12-46" v:groupContext="shadow" v:shadowOffsetX="0.345598" v:shadowOffsetY="-1.97279" v:shadowType="1"
					transform="matrix(1,0,0,1,-0.345598,-1.97279)" class="st3">
				<path d="M0 595.28 L11.34 583.94 L11.34 589.61 L35.91 589.61 L35.91 583.94 L47.24 595.28 L35.91 606.61 L35.91 600.94
							 L11.34 600.94 L11.34 606.61 L0 595.28 Z" class="st8"/>
			</g>
			<path d="M0 595.28 L11.34 583.94 L11.34 589.61 L35.91 589.61 L35.91 583.94 L47.24 595.28 L35.91 606.61 L35.91 600.94
						 L11.34 600.94 L11.34 606.61 L0 595.28 Z" class="st9"/>
		</g>
		<g id="shape13-50" v:mID="13" v:groupContext="shape" transform="translate(529.134,850.394) rotate(180)">
			<title>Simple Double Arrow.13</title>
			<v:userDefs>
				<v:ud v:nameU="visVersion" v:val="VT0(15):26"/>
				<v:ud v:nameU="ArrowType" v:prompt="" v:val="VT0(3):26"/>
			</v:userDefs>
			<g id="shadow13-51" v:groupContext="shadow" v:shadowOffsetX="0.345598" v:shadowOffsetY="-1.97279" v:shadowType="1"
					transform="matrix(1,0,0,1,-0.345598,-1.97279)" class="st3">
				<path d="M0 595.28 L11.34 583.94 L11.34 589.61 L35.91 589.61 L35.91 583.94 L47.24 595.28 L35.91 606.61 L35.91 600.94
							 L11.34 600.94 L11.34 606.61 L0 595.28 Z" class="st8"/>
			</g>
			<path d="M0 595.28 L11.34 583.94 L11.34 589.61 L35.91 589.61 L35.91 583.94 L47.24 595.28 L35.91 606.61 L35.91 600.94
						 L11.34 600.94 L11.34 606.61 L0 595.28 Z" class="st9"/>
		</g>
		<g id="shape15-55" v:mID="15" v:groupContext="shape" v:layerMember="0" transform="translate(266.457,-382.677)">
			<title>Dynamic connector</title>
			<path d="M0 595.28 L0 524.41 L-78.99 524.41" class="st10"/>
		</g>
		<g id="shape17-61" v:mID="17" v:groupContext="shape" v:layerMember="0" transform="translate(207.874,-333.071)">
			<title>Dynamic connector.17</title>
			<path d="M0 588.19 L-20.41 588.19" class="st10"/>
		</g>
		<g id="shape18-66" v:mID="18" v:groupContext="shape" v:layerMember="0" transform="translate(642.52,-333.071)">
			<title>Dynamic connector.18</title>
			<path d="M0 588.19 L30.76 588.19" class="st10"/>
		</g>
	</g>
</svg>
